<?xml version="1.0" encoding="UTF-8"?>
<svg version="1.1" xmlns="http://www.w3.org/2000/svg" width="32" height="32">
<path d="M0 0 C10.56 0 21.12 0 32 0 C32 10.56 32 21.12 32 32 C21.44 32 10.88 32 0 32 C0 21.44 0 10.88 0 0 Z " fill="#030000" transform="translate(0,0)"/>
<path d="M0 0 C0.66 0 1.32 0 2 0 C2.33 1.98 2.66 3.96 3 6 C3.40992188 5.566875 3.81984375 5.13375 4.2421875 4.6875 C4.78101563 4.130625 5.31984375 3.57375 5.875 3 C6.40867187 2.443125 6.94234375 1.88625 7.4921875 1.3125 C9 0 9 0 11 0 C9.57568513 3.06775511 8.09219926 5.21040099 6 8 C7.98 10.64 9.96 13.28 12 16 C7.46539569 14.86634892 6.09975347 13.35806626 3 10 C2.67 11.98 2.34 13.96 2 16 C1.34 16 0.68 16 0 16 C0 10.72 0 5.44 0 0 Z " fill="#E20000" transform="translate(3,8)"/>
<path d="M0 0 C3.77070649 1.6672132 5.0709374 3.33478106 7 7 C8.32 4.69 9.64 2.38 11 0 C11.66 0 12.32 0 13 0 C12.08597389 2.35035287 11.18767717 4.6481053 10 6.875 C8.6160942 9.81579982 7.84324022 12.86796491 7 16 C6.34 16 5.68 16 5 16 C4.9175 14.845 4.835 13.69 4.75 12.5 C4.18513317 7.77872502 2.33831147 4.0893261 0 0 Z " fill="#D20000" transform="translate(16,8)"/>
<path d="M0 0 C0.33 0 0.66 0 1 0 C1 2.31 1 4.62 1 7 C1.66 7 2.32 7 3 7 C2.67 9.64 2.34 12.28 2 15 C1.34 15 0.68 15 0 15 C0 10.05 0 5.1 0 0 Z " fill="#F40000" transform="translate(3,9)"/>
<path d="M0 0 C-1.39332574 3.36720387 -2.9789286 4.9859524 -6 7 C-6 4 -6 4 -4.125 1.8125 C-2 0 -2 0 0 0 Z " fill="#D00000" transform="translate(14,8)"/>
</svg>
